ffmpeg started on 2025-06-06 at 18:26:09
Report written to "D:\Convert\FFMetrics\reports\ssim_report-6.txt"
Log level: 32
Command line:
ffmpeg -hide_banner -nostdin -i "G:\\\xc0\xed\xe8\xec\xe5\\\xce\xed\xe3\xee\xe8\xed\xe3\xe8\\!_36_\xce\xf1\xe5\xed\xfc_2024\\DreamCast\\\xcf\xf0\xee\xf9\xe0\xe9, \xe6\xe8\xe7\xed\xfc \xe4\xf0\xe0\xea\xee\xed\xe0. \xc7\xe4\xf0\xe0\xe2\xf1\xf2\xe2\xf3\xe9, \xe6\xe8\xe7\xed\xfc \xf7\xe5\xeb\xee\xe2\xe5\xea\xe0\\[DC] Sayonara Ryuusei Konnichiwa Jinsei - 08_Telegram_HEVC.mkv" -i "G:\\\xc0\xed\xe8\xec\xe5\\\xce\xed\xe3\xee\xe8\xed\xe3\xe8\\!_36_\xce\xf1\xe5\xed\xfc_2024\\DreamCast\\\xcf\xf0\xee\xf9\xe0\xe9, \xe6\xe8\xe7\xed\xfc \xe4\xf0\xe0\xea\xee\xed\xe0. \xc7\xe4\xf0\xe0\xe2\xf1\xf2\xe2\xf3\xe9, \xe6\xe8\xe7\xed\xfc \xf7\xe5\xeb\xee\xe2\xe5\xea\xe0\\[DC] Sayonara Ryuusei Konnichiwa Jinsei - 08_Telegram.mp4" -lavfi "[0:v]settb=AVTB,setpts=PTS-STARTPTS,format=pix_fmts=yuv420p10,fps=24000/1001,scale=1920:1080:flags=bicubic[main];[1:v]settb=AVTB,setpts=PTS-STARTPTS,format=pix_fmts=yuv420p,fps=24000/1001,scale=1920:1080:flags=bicubic[ref];[main][ref]ssim=eof_action=endall:stats_file='D\\:/Convert/FFMetrics/logs/ssim_logfile-6.txt'" -f null -
Input #0, matroska,webm, from 'G:\Аниме\Онгоинги\!_36_Осень_2024\DreamCast\Прощай, жизнь дракона. Здравствуй, жизнь человека\[DC] Sayonara Ryuusei Konnichiwa Jinsei - 08_Telegram_HEVC.mkv':
  Metadata:
    COMPATIBLE_BRANDS: isomiso2avc1mp41
    MAJOR_BRAND     : isom
    MINOR_VERSION   : 512
    ENCODER         : Lavf61.7.100
  Duration: 00:24:16.73, start: -0.021000, bitrate: 907 kb/s
  Stream #0:0: Video: hevc (Main 10), yuv420p10le(tv, bt709, progressive), 1920x1080 [SAR 1:1 DAR 16:9], 23.98 fps, 23.98 tbr, 1k tbn (default)
      Metadata:
        HANDLER_NAME    : VideoHandler
        VENDOR_ID       : [0][0][0][0]
        ENCODER         : Lavc61.19.100 libx265
        BPS             : 710011
        DURATION        : 00:24:16.496708333
        NUMBER_OF_FRAMES: 34921
        NUMBER_OF_BYTES : 129266122
        _STATISTICS_WRITING_APP: mkvpropedit v66.0.0 ('Josie') 64-bit
        _STATISTICS_WRITING_DATE_UTC: 2025-06-03 10:30:46
        _STATISTICS_TAGS: BPS DURATION NUMBER_OF_FRAMES NUMBER_OF_BYTES
  Stream #0:1: Audio: aac (LC), 48000 Hz, stereo, fltp (default)
      Metadata:
        HANDLER_NAME    : SoundHandler
        VENDOR_ID       : [0][0][0][0]
        ENCODER         : Lavc61.19.100 aac
        BPS             : 193484
        DURATION        : 00:24:16.725000000
        NUMBER_OF_FRAMES: 68285
        NUMBER_OF_BYTES : 35231724
        _STATISTICS_WRITING_APP: mkvpropedit v66.0.0 ('Josie') 64-bit
        _STATISTICS_WRITING_DATE_UTC: 2025-06-03 10:30:46
        _STATISTICS_TAGS: BPS DURATION NUMBER_OF_FRAMES NUMBER_OF_BYTES
Input #1, mov,mp4,m4a,3gp,3g2,mj2, from 'G:\Аниме\Онгоинги\!_36_Осень_2024\DreamCast\Прощай, жизнь дракона. Здравствуй, жизнь человека\[DC] Sayonara Ryuusei Konnichiwa Jinsei - 08_Telegram.mp4':
  Metadata:
    major_brand     : isom
    minor_version   : 512
    compatible_brands: isomiso2avc1mp41
    encoder         : Lavf60.16.100
  Duration: 00:24:16.70, start: 0.000000, bitrate: 3716 kb/s
  Stream #1:0[0x1](und): Video: h264 (High) (avc1 / 0x31637661), yuv420p(tv, bt709, progressive), 1920x1080 [SAR 1:1 DAR 16:9], 3569 kb/s, 23.98 fps, 23.98 tbr, 24k tbn (default)
      Metadata:
        handler_name    : VideoHandler
        vendor_id       : [0][0][0][0]
        encoder         : Lavc60.31.102 h264_qsv
  Stream #1:1[0x2](und): Audio: aac (HE-AACv2) (mp4a / 0x6134706D), 48000 Hz, stereo, fltp, 144 kb/s (default)
      Metadata:
        handler_name    : SoundHandler
        vendor_id       : [0][0][0][0]
Stream mapping:
  Stream #0:0 (hevc) -> settb:default
  Stream #1:0 (h264) -> settb:default
  ssim:default -> Stream #0:0 (wrapped_avframe)
  Stream #0:1 -> #0:1 (aac (native) -> pcm_s16le (native))
Output #0, null, to 'pipe:':
  Metadata:
    COMPATIBLE_BRANDS: isomiso2avc1mp41
    MAJOR_BRAND     : isom
    MINOR_VERSION   : 512
    encoder         : Lavf61.7.100
  Stream #0:0: Video: wrapped_avframe, yuv420p10le(tv, bt709, progressive), 1920x1080 [SAR 1:1 DAR 16:9], q=2-31, 200 kb/s, 23.98 fps, 23.98 tbn
      Metadata:
        encoder         : Lavc61.19.100 wrapped_avframe
  Stream #0:1: Audio: pcm_s16le, 48000 Hz, stereo, s16, 1536 kb/s (default)
      Metadata:
        HANDLER_NAME    : SoundHandler
        VENDOR_ID       : [0][0][0][0]
        _STATISTICS_TAGS: BPS DURATION NUMBER_OF_FRAMES NUMBER_OF_BYTES
        BPS             : 193484
        DURATION        : 00:24:16.725000000
        NUMBER_OF_FRAMES: 68285
        NUMBER_OF_BYTES : 35231724
        _STATISTICS_WRITING_APP: mkvpropedit v66.0.0 ('Josie') 64-bit
        _STATISTICS_WRITING_DATE_UTC: 2025-06-03 10:30:46
        encoder         : Lavc61.19.100 pcm_s16le
frame=  179 fps=0.0 q=-0.0 size=N/A time=00:00:07.46 bitrate=N/A speed=14.5x    frame=  447 fps=435 q=-0.0 size=N/A time=00:00:18.64 bitrate=N/A speed=18.1x    frame=  699 fps=452 q=-0.0 size=N/A time=00:00:29.15 bitrate=N/A speed=18.9x    frame=  939 fps=457 q=-0.0 size=N/A time=00:00:39.16 bitrate=N/A speed=19.1x    frame= 1144 fps=444 q=-0.0 size=N/A time=00:00:47.71 bitrate=N/A speed=18.5x    frame= 1344 fps=435 q=-0.0 size=N/A time=00:00:56.05 bitrate=N/A speed=18.1x    frame= 1536 fps=425 q=-0.0 size=N/A time=00:01:04.06 bitrate=N/A speed=17.7x    frame= 1726 fps=419 q=-0.0 size=N/A time=00:01:11.98 bitrate=N/A speed=17.5x    frame= 1915 fps=413 q=-0.0 size=N/A time=00:01:19.87 bitrate=N/A speed=17.2x    frame= 2107 fps=409 q=-0.0 size=N/A time=00:01:27.87 bitrate=N/A speed=  17x    frame= 2330 fps=411 q=-0.0 size=N/A time=00:01:37.18 bitrate=N/A speed=17.2x    frame= 2543 fps=411 q=-0.0 size=N/A time=00:01:46.06 bitrate=N/A speed=17.1x    frame= 2782 fps=415 q=-0.0 size=N/A time=00:01:56.03 bitrate=N/A speed=17.3x    frame= 3042 fps=422 q=-0.0 size=N/A time=00:02:06.87 bitrate=N/A speed=17.6x    frame= 3286 fps=425 q=-0.0 size=N/A time=00:02:17.05 bitrate=N/A speed=17.7x    frame= 3526 fps=428 q=-0.0 size=N/A time=00:02:27.06 bitrate=N/A speed=17.8x    frame= 3787 fps=433 q=-0.0 size=N/A time=00:02:37.94 bitrate=N/A speed=  18x    frame= 4062 fps=438 q=-0.0 size=N/A time=00:02:49.41 bitrate=N/A speed=18.3x    frame= 4333 fps=443 q=-0.0 size=N/A time=00:03:00.72 bitrate=N/A speed=18.5x    frame= 4595 fps=446 q=-0.0 size=N/A time=00:03:11.64 bitrate=N/A speed=18.6x    frame= 4862 fps=449 q=-0.0 size=N/A time=00:03:22.78 bitrate=N/A speed=18.7x    frame= 5119 fps=451 q=-0.0 size=N/A time=00:03:33.50 bitrate=N/A speed=18.8x    frame= 5366 fps=452 q=-0.0 size=N/A time=00:03:43.80 bitrate=N/A speed=18.9x    frame= 5640 fps=456 q=-0.0 size=N/A time=00:03:55.23 bitrate=N/A speed=  19x    frame= 5892 fps=457 q=-0.0 size=N/A time=00:04:05.74 bitrate=N/A speed=19.1x    frame= 6155 fps=459 q=-0.0 size=N/A time=00:04:16.71 bitrate=N/A speed=19.2x    frame= 6432 fps=462 q=-0.0 size=N/A time=00:04:28.26 bitrate=N/A speed=19.3x    frame= 6705 fps=465 q=-0.0 size=N/A time=00:04:39.65 bitrate=N/A speed=19.4x    frame= 6943 fps=465 q=-0.0 size=N/A time=00:04:49.58 bitrate=N/A speed=19.4x    frame= 7197 fps=466 q=-0.0 size=N/A time=00:05:00.17 bitrate=N/A speed=19.4x    frame= 7428 fps=465 q=-0.0 size=N/A time=00:05:09.80 bitrate=N/A speed=19.4x    frame= 7697 fps=467 q=-0.0 size=N/A time=00:05:21.02 bitrate=N/A speed=19.5x    frame= 7948 fps=467 q=-0.0 size=N/A time=00:05:31.49 bitrate=N/A speed=19.5x    frame= 8219 fps=469 q=-0.0 size=N/A time=00:05:42.80 bitrate=N/A speed=19.6x    frame= 8471 fps=470 q=-0.0 size=N/A time=00:05:53.31 bitrate=N/A speed=19.6x    frame= 8744 fps=471 q=-0.0 size=N/A time=00:06:04.69 bitrate=N/A speed=19.6x    frame= 9001 fps=472 q=-0.0 size=N/A time=00:06:15.41 bitrate=N/A speed=19.7x    frame= 9251 fps=472 q=-0.0 size=N/A time=00:06:25.84 bitrate=N/A speed=19.7x    frame= 9487 fps=472 q=-0.0 size=N/A time=00:06:35.72 bitrate=N/A speed=19.7x    frame= 9744 fps=472 q=-0.0 size=N/A time=00:06:46.40 bitrate=N/A speed=19.7x    frame= 9974 fps=472 q=-0.0 size=N/A time=00:06:55.99 bitrate=N/A speed=19.7x    frame=10200 fps=471 q=-0.0 size=N/A time=00:07:05.42 bitrate=N/A speed=19.7x    frame=10463 fps=472 q=-0.0 size=N/A time=00:07:16.39 bitrate=N/A speed=19.7x    frame=10721 fps=473 q=-0.0 size=N/A time=00:07:27.15 bitrate=N/A speed=19.7x    frame=11013 fps=475 q=-0.0 size=N/A time=00:07:39.33 bitrate=N/A speed=19.8x    frame=11286 fps=476 q=-0.0 size=N/A time=00:07:50.72 bitrate=N/A speed=19.9x    frame=11559 fps=477 q=-0.0 size=N/A time=00:08:02.10 bitrate=N/A speed=19.9x    frame=11848 fps=479 q=-0.0 size=N/A time=00:08:14.16 bitrate=N/A speed=  20x    frame=12129 fps=480 q=-0.0 size=N/A time=00:08:25.88 bitrate=N/A speed=  20x    frame=12395 fps=481 q=-0.0 size=N/A time=00:08:36.97 bitrate=N/A speed=20.1x    frame=12689 fps=483 q=-0.0 size=N/A time=00:08:49.23 bitrate=N/A speed=20.1x    frame=12974 fps=484 q=-0.0 size=N/A time=00:09:01.12 bitrate=N/A speed=20.2x    frame=13246 fps=485 q=-0.0 size=N/A time=00:09:12.46 bitrate=N/A speed=20.2x    frame=13522 fps=486 q=-0.0 size=N/A time=00:09:23.98 bitrate=N/A speed=20.3x    frame=13800 fps=487 q=-0.0 size=N/A time=00:09:35.57 bitrate=N/A speed=20.3x    frame=14085 fps=488 q=-0.0 size=N/A time=00:09:47.46 bitrate=N/A speed=20.3x    frame=14384 fps=489 q=-0.0 size=N/A time=00:09:59.93 bitrate=N/A speed=20.4x    frame=14673 fps=491 q=-0.0 size=N/A time=00:10:11.98 bitrate=N/A speed=20.5x    frame=14931 fps=491 q=-0.0 size=N/A time=00:10:22.74 bitrate=N/A speed=20.5x    frame=15197 fps=491 q=-0.0 size=N/A time=00:10:33.84 bitrate=N/A speed=20.5x    frame=15456 fps=492 q=-0.0 size=N/A time=00:10:44.64 bitrate=N/A speed=20.5x    frame=15703 fps=491 q=-0.0 size=N/A time=00:10:54.94 bitrate=N/A speed=20.5x    frame=15983 fps=492 q=-0.0 size=N/A time=00:11:06.62 bitrate=N/A speed=20.5x    frame=16225 fps=492 q=-0.0 size=N/A time=00:11:16.71 bitrate=N/A speed=20.5x    frame=16491 fps=492 q=-0.0 size=N/A time=00:11:27.81 bitrate=N/A speed=20.5x    frame=16777 fps=493 q=-0.0 size=N/A time=00:11:39.74 bitrate=N/A speed=20.6x    frame=17064 fps=494 q=-0.0 size=N/A time=00:11:51.71 bitrate=N/A speed=20.6x    frame=17337 fps=495 q=-0.0 size=N/A time=00:12:03.09 bitrate=N/A speed=20.6x    frame=17638 fps=496 q=-0.0 size=N/A time=00:12:15.65 bitrate=N/A speed=20.7x    frame=17916 fps=496 q=-0.0 size=N/A time=00:12:27.24 bitrate=N/A speed=20.7x    frame=18185 fps=497 q=-0.0 size=N/A time=00:12:38.46 bitrate=N/A speed=20.7x    frame=18465 fps=497 q=-0.0 size=N/A time=00:12:50.14 bitrate=N/A speed=20.7x    frame=18720 fps=497 q=-0.0 size=N/A time=00:13:00.78 bitrate=N/A speed=20.7x    frame=19015 fps=498 q=-0.0 size=N/A time=00:13:13.08 bitrate=N/A speed=20.8x    frame=19287 fps=499 q=-0.0 size=N/A time=00:13:24.42 bitrate=N/A speed=20.8x    frame=19546 fps=499 q=-0.0 size=N/A time=00:13:35.23 bitrate=N/A speed=20.8x    frame=19815 fps=499 q=-0.0 size=N/A time=00:13:46.45 bitrate=N/A speed=20.8x    frame=20105 fps=500 q=-0.0 size=N/A time=00:13:58.54 bitrate=N/A speed=20.9x    frame=20380 fps=500 q=-0.0 size=N/A time=00:14:10.01 bitrate=N/A speed=20.9x    frame=20615 fps=500 q=-0.0 size=N/A time=00:14:19.81 bitrate=N/A speed=20.8x    frame=20874 fps=500 q=-0.0 size=N/A time=00:14:30.61 bitrate=N/A speed=20.9x    frame=21161 fps=500 q=-0.0 size=N/A time=00:14:42.59 bitrate=N/A speed=20.9x    frame=21422 fps=501 q=-0.0 size=N/A time=00:14:53.47 bitrate=N/A speed=20.9x    frame=21717 fps=502 q=-0.0 size=N/A time=00:15:05.77 bitrate=N/A speed=20.9x    frame=22011 fps=502 q=-0.0 size=N/A time=00:15:18.04 bitrate=N/A speed=20.9x    frame=22292 fps=503 q=-0.0 size=N/A time=00:15:29.76 bitrate=N/A speed=  21x    frame=22563 fps=503 q=-0.0 size=N/A time=00:15:41.06 bitrate=N/A speed=  21x    frame=22815 fps=503 q=-0.0 size=N/A time=00:15:51.57 bitrate=N/A speed=  21x    frame=23094 fps=503 q=-0.0 size=N/A time=00:16:03.21 bitrate=N/A speed=  21x    frame=23350 fps=503 q=-0.0 size=N/A time=00:16:13.88 bitrate=N/A speed=  21x    frame=23613 fps=503 q=-0.0 size=N/A time=00:16:24.85 bitrate=N/A speed=  21x    frame=23883 fps=503 q=-0.0 size=N/A time=00:16:36.12 bitrate=N/A speed=  21x    frame=24155 fps=504 q=-0.0 size=N/A time=00:16:47.46 bitrate=N/A speed=  21x    frame=24439 fps=504 q=-0.0 size=N/A time=00:16:59.30 bitrate=N/A speed=  21x    frame=24711 fps=504 q=-0.0 size=N/A time=00:17:10.65 bitrate=N/A speed=  21x    frame=24980 fps=505 q=-0.0 size=N/A time=00:17:21.87 bitrate=N/A speed=21.1x    frame=25227 fps=504 q=-0.0 size=N/A time=00:17:32.17 bitrate=N/A speed=  21x    frame=25490 fps=505 q=-0.0 size=N/A time=00:17:43.14 bitrate=N/A speed=  21x    frame=25774 fps=505 q=-0.0 size=N/A time=00:17:54.99 bitrate=N/A speed=21.1x    frame=26040 fps=505 q=-0.0 size=N/A time=00:18:06.08 bitrate=N/A speed=21.1x    frame=26323 fps=506 q=-0.0 size=N/A time=00:18:17.88 bitrate=N/A speed=21.1x    frame=26580 fps=505 q=-0.0 size=N/A time=00:18:28.60 bitrate=N/A speed=21.1x    frame=26828 fps=505 q=-0.0 size=N/A time=00:18:38.95 bitrate=N/A speed=21.1x    frame=27082 fps=505 q=-0.0 size=N/A time=00:18:49.54 bitrate=N/A speed=21.1x    frame=27324 fps=505 q=-0.0 size=N/A time=00:18:59.63 bitrate=N/A speed=21.1x    frame=27608 fps=505 q=-0.0 size=N/A time=00:19:11.48 bitrate=N/A speed=21.1x    frame=27899 fps=506 q=-0.0 size=N/A time=00:19:23.62 bitrate=N/A speed=21.1x    frame=28167 fps=506 q=-0.0 size=N/A time=00:19:34.79 bitrate=N/A speed=21.1x    frame=28454 fps=506 q=-0.0 size=N/A time=00:19:46.76 bitrate=N/A speed=21.1x    frame=28747 fps=507 q=-0.0 size=N/A time=00:19:58.98 bitrate=N/A speed=21.1x    frame=29032 fps=507 q=-0.0 size=N/A time=00:20:10.87 bitrate=N/A speed=21.2x    frame=29311 fps=508 q=-0.0 size=N/A time=00:20:22.51 bitrate=N/A speed=21.2x    frame=29570 fps=508 q=-0.0 size=N/A time=00:20:33.31 bitrate=N/A speed=21.2x    frame=29826 fps=507 q=-0.0 size=N/A time=00:20:43.99 bitrate=N/A speed=21.2x    frame=30080 fps=507 q=-0.0 size=N/A time=00:20:54.58 bitrate=N/A speed=21.2x    frame=30291 fps=507 q=-0.0 size=N/A time=00:21:03.38 bitrate=N/A speed=21.1x    frame=30545 fps=506 q=-0.0 size=N/A time=00:21:13.98 bitrate=N/A speed=21.1x    frame=30778 fps=506 q=-0.0 size=N/A time=00:21:23.69 bitrate=N/A speed=21.1x    frame=31026 fps=506 q=-0.0 size=N/A time=00:21:34.04 bitrate=N/A speed=21.1x    frame=31279 fps=506 q=-0.0 size=N/A time=00:21:44.59 bitrate=N/A speed=21.1x    frame=31532 fps=505 q=-0.0 size=N/A time=00:21:55.14 bitrate=N/A speed=21.1x    frame=31818 fps=506 q=-0.0 size=N/A time=00:22:07.07 bitrate=N/A speed=21.1x    frame=32083 fps=506 q=-0.0 size=N/A time=00:22:18.12 bitrate=N/A speed=21.1x    frame=32344 fps=506 q=-0.0 size=N/A time=00:22:29.01 bitrate=N/A speed=21.1x    frame=32569 fps=505 q=-0.0 size=N/A time=00:22:38.39 bitrate=N/A speed=21.1x    frame=32789 fps=505 q=-0.0 size=N/A time=00:22:47.57 bitrate=N/A speed=21.1x    frame=33031 fps=504 q=-0.0 size=N/A time=00:22:57.66 bitrate=N/A speed=  21x    frame=33260 fps=504 q=-0.0 size=N/A time=00:23:07.21 bitrate=N/A speed=  21x    frame=33498 fps=504 q=-0.0 size=N/A time=00:23:17.14 bitrate=N/A speed=  21x    frame=33716 fps=503 q=-0.0 size=N/A time=00:23:26.23 bitrate=N/A speed=  21x    frame=33950 fps=503 q=-0.0 size=N/A time=00:23:35.99 bitrate=N/A speed=  21x    frame=34107 fps=501 q=-0.0 size=N/A time=00:23:42.54 bitrate=N/A speed=20.9x    frame=34270 fps=500 q=-0.0 size=N/A time=00:23:49.34 bitrate=N/A speed=20.8x    frame=34467 fps=499 q=-0.0 size=N/A time=00:23:57.56 bitrate=N/A speed=20.8x    frame=34660 fps=498 q=-0.0 size=N/A time=00:24:05.61 bitrate=N/A speed=20.8x    frame=34900 fps=498 q=-0.0 size=N/A time=00:24:15.62 bitrate=N/A speed=20.8x    [Parsed_ssim_10 @ 000001e5b074be80] SSIM Y:0.994443 (22.551569) U:0.993143 (21.638925) V:0.993444 (21.833370) All:0.994060 (22.262004)
[out#0/null @ 000001e5afe85c40] video:15005KiB audio:273140KiB subtitle:0KiB other streams:0KiB global headers:0KiB muxing overhead: unknown
frame=34921 fps=498 q=-0.0 Lsize=N/A time=00:24:16.49 bitrate=N/A speed=20.8x    
